<svg width="21" height="21" viewBox="0 0 21 21" fill="none" xmlns="http://www.w3.org/2000/svg">
<path fill-rule="evenodd" clip-rule="evenodd" d="M10.4998 1.91666C10.1028 1.91666 9.7106 2.00433 9.35133 2.1734L4.08051 4.65378C2.91221 5.20357 2.1665 6.37864 2.1665 7.66985V13.5833C2.1665 14.4148 2.6467 15.1715 3.39902 15.5255L9.35133 18.3266C9.7106 18.4957 10.1028 18.5833 10.4998 18.5833C10.8969 18.5833 11.2891 18.4957 11.6483 18.3266L17.6007 15.5255C18.353 15.1715 18.8332 14.4148 18.8332 13.5833V7.66985C18.8332 6.37864 18.0875 5.20357 16.9192 4.65378L11.6483 2.1734C11.2891 2.00433 10.8969 1.91666 10.4998 1.91666ZM17.1665 12.235L11.3332 9.3183V3.86707L16.2095 6.16181C16.7937 6.43671 17.1665 7.02424 17.1665 7.66985V12.235ZM10.4998 10.765L16.9451 13.9876C16.9279 13.9986 16.9098 14.0086 16.891 14.0175L10.9387 16.8186C10.8014 16.8832 10.6516 16.9167 10.4998 16.9167C10.3481 16.9167 10.1983 16.8832 10.061 16.8186L4.10868 14.0175C4.08987 14.0086 4.07182 13.9986 4.0546 13.9876L10.4998 10.765ZM9.6665 9.3183L3.83317 12.235V7.66985C3.83317 7.02424 4.20602 6.43671 4.79018 6.16181L9.6665 3.86707V9.3183Z" fill="black"/>
</svg>
