<svg width="20" height="21" viewBox="0 0 20 21" fill="#98A2B3" xmlns="http://www.w3.org/2000/svg">
<path d="M8.97225 9.20272C9.37905 8.79592 9.37905 8.13638 8.97225 7.72958C8.56546 7.32279 7.90591 7.32279 7.49911 7.72958C7.09232 8.13638 7.09232 8.79592 7.49911 9.20272C7.90591 9.60952 8.56546 9.60952 8.97225 9.20272Z"/>
<path d="M12.5078 11.2651C12.9146 11.6719 12.9146 12.3315 12.5078 12.7383C12.101 13.1451 11.4415 13.1451 11.0347 12.7383C10.6279 12.3315 10.6279 11.6719 11.0347 11.2651C11.4415 10.8583 12.101 10.8583 12.5078 11.2651Z"/>
<path d="M7.64342 11.4041C7.31799 11.7296 7.31799 12.2572 7.64342 12.5826C7.96886 12.9081 8.4965 12.9081 8.82193 12.5826L12.3575 9.04709C12.6829 8.72166 12.6829 8.19402 12.3575 7.86858C12.032 7.54315 11.5044 7.54315 11.179 7.86858L7.64342 11.4041Z"/>
<path fill-rule="evenodd" clip-rule="evenodd" d="M12.0853 1.91634C10.9229 0.791802 9.07805 0.791802 7.91562 1.91634C7.62037 2.20197 7.20983 2.33536 6.80308 2.27783C5.20166 2.05132 3.70917 3.13567 3.42973 4.72871C3.35876 5.13333 3.10503 5.48255 2.74215 5.67509C1.31343 6.43313 0.743355 8.18765 1.45364 9.64069C1.63405 10.0098 1.63405 10.4414 1.45364 10.8105C0.743355 12.2635 1.31343 14.0181 2.74215 14.7761C3.10503 14.9686 3.35876 15.3179 3.42973 15.7225C3.70917 17.3155 5.20166 18.3999 6.80308 18.1734C7.20983 18.1158 7.62037 18.2492 7.91562 18.5348C9.07805 19.6594 10.9229 19.6594 12.0853 18.5348C12.3806 18.2492 12.7911 18.1158 13.1978 18.1734C14.7993 18.3999 16.2917 17.3155 16.5712 15.7225C16.6422 15.3179 16.8959 14.9686 17.2588 14.7761C18.6875 14.0181 19.2576 12.2635 18.5473 10.8105C18.3669 10.4414 18.3669 10.0098 18.5473 9.64069C19.2576 8.18765 18.6875 6.43313 17.2588 5.67509C16.8959 5.48255 16.6422 5.13333 16.5712 4.72871C16.2917 3.13567 14.7993 2.05132 13.1978 2.27783C12.7911 2.33536 12.3806 2.20197 12.0853 1.91634ZM9.07444 3.11422C9.59076 2.61473 10.4102 2.61473 10.9265 3.11422C11.5912 3.75728 12.5155 4.0576 13.4313 3.92807C14.1426 3.82746 14.8055 4.30909 14.9296 5.01667C15.0894 5.92763 15.6606 6.71388 16.4776 7.14736C17.1122 7.48406 17.3654 8.26336 17.0499 8.90875C16.6438 9.73966 16.6438 10.7115 17.0499 11.5424C17.3654 12.1878 17.1122 12.9671 16.4776 13.3038C15.6606 13.7373 15.0894 14.5236 14.9296 15.4345C14.8055 16.1421 14.1426 16.6237 13.4313 16.5231C12.5155 16.3936 11.5912 16.6939 10.9265 17.337C10.4102 17.8365 9.59076 17.8365 9.07444 17.337C8.40971 16.6939 7.48542 16.3936 6.56966 16.5231C5.85837 16.6237 5.19545 16.1421 5.07134 15.4345C4.91154 14.5236 4.3403 13.7373 3.5233 13.3038C2.88871 12.9671 2.6355 12.1878 2.95099 11.5424C3.35716 10.7115 3.35716 9.73966 2.95099 8.90875C2.6355 8.26336 2.88871 7.48406 3.5233 7.14736C4.3403 6.71388 4.91154 5.92763 5.07134 5.01667C5.19545 4.3091 5.85837 3.82746 6.56966 3.92807C7.48542 4.0576 8.40971 3.75728 9.07444 3.11422Z"/>
</svg>
