<svg width="25" height="24" viewBox="0 0 25 24" fill="none" xmlns="http://www.w3.org/2000/svg">
<g id="icon / calendar">
<path id="icon" fill-rule="evenodd" clip-rule="evenodd" d="M8.8252 1C9.37748 1 9.8252 1.44772 9.8252 2V3H15.8252V2C15.8252 1.44772 16.2729 1 16.8252 1C17.3775 1 17.8252 1.44772 17.8252 2V3H18.8252C21.0343 3 22.8252 4.79086 22.8252 7V18C22.8252 20.2091 21.0343 22 18.8252 22H6.8252C4.61606 22 2.8252 20.2091 2.8252 18V7C2.8252 4.79086 4.61606 3 6.8252 3H7.8252V2C7.8252 1.44772 8.27291 1 8.8252 1ZM15.8252 5C15.8252 5.55228 16.2729 6 16.8252 6C17.3775 6 17.8252 5.55228 17.8252 5H18.8252C19.9298 5 20.8252 5.89543 20.8252 7V7.5H4.8252V7C4.8252 5.89543 5.72063 5 6.8252 5H7.8252C7.8252 5.55228 8.27291 6 8.8252 6C9.37748 6 9.8252 5.55228 9.8252 5H15.8252ZM20.8252 9.5H4.8252V18C4.8252 19.1046 5.72063 20 6.8252 20H18.8252C19.9298 20 20.8252 19.1046 20.8252 18V9.5Z" fill="#344054"/>
</g>
</svg>
