<svg width="12" height="13" viewBox="0 0 12 13" fill="none" xmlns="http://www.w3.org/2000/svg">
<path d="M2.64645 7.72983C2.45118 7.92509 2.45118 8.24167 2.64645 8.43693C2.84171 8.63219 3.15829 8.63219 3.35355 8.43693L5.03388 6.7566L5.68373 7.28731C5.88793 7.45407 6.18653 7.43363 6.36609 7.2406L8.00142 5.48262L8.63523 6.15868C8.8241 6.36014 9.14051 6.37035 9.34197 6.18148C9.54343 5.99262 9.55363 5.6762 9.36477 5.47474L8.36477 4.40808C8.27001 4.307 8.13757 4.24978 7.99903 4.25005C7.86049 4.25032 7.72827 4.30806 7.63391 4.40949L5.95319 6.21627L5.31627 5.69611C5.11744 5.53374 4.82796 5.54831 4.64645 5.72983L2.64645 7.72983Z" fill="#036B26"/>
<path fill-rule="evenodd" clip-rule="evenodd" d="M2.5 1.75C1.39543 1.75 0.5 2.64543 0.5 3.75V8.75C0.5 9.85457 1.39543 10.75 2.5 10.75H9.5C10.6046 10.75 11.5 9.85457 11.5 8.75V3.75C11.5 2.64543 10.6046 1.75 9.5 1.75H2.5ZM1.5 3.75C1.5 3.19772 1.94772 2.75 2.5 2.75H9.5C10.0523 2.75 10.5 3.19772 10.5 3.75V8.75C10.5 9.30228 10.0523 9.75 9.5 9.75H2.5C1.94772 9.75 1.5 9.30228 1.5 8.75V3.75Z" fill="#036B26"/>
</svg>
