<svg width="20" height="21" viewBox="0 0 20 21" fill="#98A2B3" xmlns="http://www.w3.org/2000/svg">
<path fill-rule="evenodd" clip-rule="evenodd" d="M11.9123 2.21311C10.7645 1.4097 9.2369 1.4097 8.08917 2.21311L2.35786 6.22503C1.39234 6.90089 0.855489 8.03637 0.94588 9.21146L1.5334 16.8492C1.6442 18.2896 2.94937 19.3366 4.37959 19.1323L7.02093 18.755C8.25255 18.579 9.16738 17.5242 9.16738 16.2801V15.2256C9.16738 14.7653 9.54047 14.3922 10.0007 14.3922C10.4609 14.3922 10.834 14.7653 10.834 15.2256V16.2801C10.834 17.5242 11.7489 18.579 12.9805 18.755L15.6218 19.1323C17.0521 19.3366 18.3572 18.2896 18.468 16.8492L19.0555 9.21146C19.1459 8.03637 18.6091 6.90089 17.6436 6.22503L11.9123 2.21311ZM9.04494 3.5785C9.61881 3.17679 10.3826 3.17679 10.9565 3.5785L16.6878 7.59042C17.1706 7.92835 17.439 8.49609 17.3938 9.08363L16.8063 16.7213C16.7693 17.2015 16.3343 17.5505 15.8575 17.4824L13.2162 17.105C12.8057 17.0464 12.5007 16.6948 12.5007 16.2801V15.2256C12.5007 13.8449 11.3814 12.7256 10.0007 12.7256C8.62 12.7256 7.50071 13.8449 7.50071 15.2256V16.2801C7.50071 16.6948 7.19577 17.0464 6.78523 17.105L4.14388 17.4824C3.66715 17.5505 3.23209 17.2015 3.19515 16.7213L2.60764 9.08363C2.56244 8.49609 2.83087 7.92835 3.31363 7.59042L9.04494 3.5785Z" />
</svg>
