<svg width="20" height="21" viewBox="0 0 20 21" fill="#98A2B3" xmlns="http://www.w3.org/2000/svg">
<path d="M6.66667 5.22558C6.20643 5.22558 5.83333 5.59868 5.83333 6.05891C5.83333 6.51915 6.20643 6.89225 6.66667 6.89225H13.3333C13.7936 6.89225 14.1667 6.51915 14.1667 6.05891C14.1667 5.59868 13.7936 5.22558 13.3333 5.22558H6.66667Z"/>
<path d="M5.83333 10.2256C5.83333 9.76534 6.20643 9.39225 6.66667 9.39225H13.3333C13.7936 9.39225 14.1667 9.76534 14.1667 10.2256C14.1667 10.6858 13.7936 11.0589 13.3333 11.0589H6.66667C6.20643 11.0589 5.83333 10.6858 5.83333 10.2256Z"/>
<path d="M6.66667 13.5589C6.20643 13.5589 5.83333 13.932 5.83333 14.3922C5.83333 14.8525 6.20643 15.2256 6.66667 15.2256H8.88889C9.34913 15.2256 9.72222 14.8525 9.72222 14.3922C9.72222 13.932 9.34913 13.5589 8.88889 13.5589H6.66667Z"/>
<path d="M11.1111 13.5589C10.6509 13.5589 10.2778 13.932 10.2778 14.3922C10.2778 14.8525 10.6509 15.2256 11.1111 15.2256H13.3333C13.7936 15.2256 14.1667 14.8525 14.1667 14.3922C14.1667 13.932 13.7936 13.5589 13.3333 13.5589H11.1111Z"/>
<path fill-rule="evenodd" clip-rule="evenodd" d="M12.9015 18.4766C12.9952 18.5 13.0861 18.5336 13.1724 18.5768C15.1607 19.5709 17.5 18.1252 17.5 15.9022V4.39225C17.5 2.5513 16.0076 1.05891 14.1667 1.05891H5.83333C3.99238 1.05891 2.5 2.5513 2.5 4.39225V15.9022C2.5 18.1252 4.83933 19.5709 6.82757 18.5768C6.91395 18.5336 7.00479 18.5 7.09848 18.4766L9.59577 17.8523C9.86117 17.7859 10.1388 17.7859 10.4042 17.8523L12.9015 18.4766ZM4.16667 4.39225C4.16667 3.47177 4.91286 2.72558 5.83333 2.72558H14.1667C15.0871 2.72558 15.8333 3.47177 15.8333 4.39225V15.9022C15.8333 16.8862 14.7979 17.5261 13.9178 17.0861C13.7226 16.9885 13.5174 16.9126 13.3057 16.8597L10.8085 16.2354C10.2777 16.1027 9.72235 16.1027 9.19155 16.2354L6.69426 16.8597C6.48259 16.9126 6.27736 16.9885 6.08221 17.0861C5.20214 17.5261 4.16667 16.8862 4.16667 15.9022V4.39225Z" />
</svg>
