<svg width="18" height="16" viewBox="0 0 18 16" fill="none" xmlns="http://www.w3.org/2000/svg">
<path d="M16.2554 0.744078C16.5808 1.06951 16.5808 1.59715 16.2554 1.92259L2.92206 15.2559C2.59662 15.5814 2.06899 15.5814 1.74355 15.2559C1.41811 14.9305 1.41811 14.4028 1.74355 14.0774L15.0769 0.744078C15.4023 0.418641 15.93 0.418641 16.2554 0.744078Z" fill="#667185"/>
<path d="M12.1657 2.4767C11.2272 2.03469 10.1689 1.75 8.99946 1.75C6.54604 1.75 4.58177 3.00308 3.1858 4.33307C1.78661 5.66611 0.878723 7.14973 0.519336 7.7915C0.283819 8.21207 0.255768 8.71426 0.449092 9.16031C0.584103 9.47181 0.813707 9.95437 1.15212 10.5143C1.39016 10.9082 1.90245 11.0346 2.29635 10.7965C2.69024 10.5585 2.81659 10.0462 2.57854 9.65232C2.30635 9.20192 2.11748 8.81241 2.00291 8.55369C2.34104 7.95778 3.14184 6.67693 4.33544 5.53975C5.56834 4.36513 7.14116 3.41667 8.99946 3.41667C9.66784 3.41667 10.2993 3.53937 10.8913 3.75116L12.1657 2.4767Z" fill="#667185"/>
<path d="M13.7416 5.61491C14.892 6.73288 15.6653 7.97087 15.996 8.55369C15.8814 8.81241 15.6926 9.20192 15.4204 9.65232C15.1823 10.0462 15.3087 10.5585 15.7026 10.7965C16.0965 11.0346 16.6087 10.9082 16.8468 10.5143C17.1852 9.95437 17.4148 9.47181 17.5498 9.1603C17.7431 8.71426 17.7151 8.21207 17.4796 7.7915C17.1294 7.16625 16.2587 5.74193 14.9202 4.43629L13.7416 5.61491Z" fill="#667185"/>
<path d="M8.99947 4.66667C9.30232 4.66667 9.59762 4.69898 9.88211 4.76034L8.16725 6.47519C7.45601 6.7262 6.89234 7.28987 6.64133 8.00112L4.92647 9.71597C4.86511 9.43148 4.8328 9.13618 4.8328 8.83333C4.8328 6.53215 6.69828 4.66667 8.99947 4.66667Z" fill="#667185"/>
<path d="M8.99947 11.3333C8.70708 11.3333 8.4264 11.2831 8.1656 11.1909L6.91473 12.4418C7.52791 12.7968 8.23996 13 8.99947 13C11.3007 13 13.1661 11.1345 13.1661 8.83333C13.1661 8.07382 12.9629 7.36177 12.6079 6.74859L11.357 7.99947C11.4493 8.26027 11.4995 8.54094 11.4995 8.83333C11.4995 10.214 10.3802 11.3333 8.99947 11.3333Z" fill="#667185"/>
</svg>
