<svg width="20" height="20" viewBox="0 0 20 20" fill="none" xmlns="http://www.w3.org/2000/svg">
<path d="M3.3335 5C3.3335 4.53976 3.70659 4.16666 4.16683 4.16666H15.8335C16.2937 4.16666 16.6668 4.53976 16.6668 5C16.6668 5.46023 16.2937 5.83333 15.8335 5.83333H4.16683C3.70659 5.83333 3.3335 5.46023 3.3335 5Z" fill="#344054"/>
<path d="M5.00016 10C5.00016 9.53976 5.37326 9.16666 5.8335 9.16666H14.1668C14.6271 9.16666 15.0002 9.53976 15.0002 10C15.0002 10.4602 14.6271 10.8333 14.1668 10.8333H5.8335C5.37326 10.8333 5.00016 10.4602 5.00016 10Z" fill="#344054"/>
<path d="M7.50016 14.1667C7.03993 14.1667 6.66683 14.5398 6.66683 15C6.66683 15.4602 7.03993 15.8333 7.50016 15.8333H12.5002C12.9604 15.8333 13.3335 15.4602 13.3335 15C13.3335 14.5398 12.9604 14.1667 12.5002 14.1667H7.50016Z" fill="#344054"/>
</svg>
