<svg width="21" height="21" viewBox="0 0 21 21" fill="none" xmlns="http://www.w3.org/2000/svg">
<path fill-rule="evenodd" clip-rule="evenodd" d="M10.8496 3.00002C10.8496 2.53978 10.4765 2.16669 10.0162 2.16669C9.55601 2.16669 9.18291 2.53978 9.18291 3.00002V3.47574C6.35614 3.87996 4.18291 6.31022 4.18291 9.24911L4.18291 12.5828C4.18291 12.5828 4.18292 12.5826 4.18291 12.5828C4.18283 12.5844 4.18226 12.5955 4.17865 12.6174C4.17431 12.6437 4.16661 12.6794 4.1539 12.7253C4.12812 12.8183 4.08711 12.9342 4.0298 13.0713C3.91492 13.346 3.75295 13.6622 3.57382 13.9813C3.23703 14.5813 3.06727 15.2962 3.19472 15.9761C3.32912 16.693 3.79061 17.3183 4.57879 17.6184C5.28288 17.8865 6.2201 18.1316 7.45779 18.2775C7.48724 18.3031 7.52207 18.3323 7.56207 18.3643C7.68731 18.4645 7.86624 18.5943 8.09238 18.7236C8.54118 18.98 9.20476 19.25 10.0162 19.25C10.8277 19.25 11.4913 18.98 11.9401 18.7236C12.1662 18.5943 12.3452 18.4645 12.4704 18.3643C12.5104 18.3323 12.5452 18.3031 12.5747 18.2775C13.8124 18.1316 14.7496 17.8865 15.4537 17.6184C16.2419 17.3183 16.7034 16.693 16.8378 15.9761C16.9652 15.2962 16.7955 14.5813 16.4587 13.9813C16.2795 13.6622 16.1176 13.346 16.0027 13.0713C15.9454 12.9342 15.9044 12.8183 15.8786 12.7253C15.8659 12.6794 15.8582 12.6437 15.8538 12.6174C15.8502 12.5955 15.8497 12.5846 15.8496 12.583C15.8496 12.5828 15.8496 12.583 15.8496 12.583L15.8496 12.5759V9.24951C15.8496 6.31069 13.6764 3.88003 10.8496 3.47575V3.00002ZM5.84958 9.24911C5.84958 6.94812 7.71486 5.08335 10.0162 5.08335C12.3175 5.08335 14.1829 6.94843 14.1829 9.24951V12.5834C14.1829 12.9691 14.3275 13.3852 14.4651 13.7143C14.6146 14.0718 14.8105 14.45 15.0053 14.7972C15.1948 15.1347 15.24 15.4537 15.1996 15.669C15.1662 15.8472 15.0772 15.9783 14.8606 16.0608C13.9649 16.4019 12.4528 16.75 10.0162 16.75C7.57964 16.75 6.06758 16.4019 5.17186 16.0608C4.95532 15.9783 4.86625 15.8472 4.83285 15.669C4.79249 15.4537 4.83767 15.1347 5.02715 14.7972C5.22202 14.45 5.41793 14.0718 5.56743 13.7143C5.70503 13.3852 5.84958 12.9691 5.84958 12.5834V9.24911Z" fill="#344054"/>
</svg>
