<svg width="21" height="20" viewBox="0 0 21 20" fill="none" xmlns="http://www.w3.org/2000/svg">
<g id="icon / plus-circle">
<g id="icon">
<path d="M11.6584 7.50002C11.6584 7.03978 11.2853 6.66669 10.825 6.66669C10.3648 6.66669 9.9917 7.03978 9.9917 7.50002V9.16669H8.32503C7.8648 9.16669 7.4917 9.53978 7.4917 10C7.4917 10.4603 7.8648 10.8334 8.32503 10.8334H9.9917V12.5C9.9917 12.9603 10.3648 13.3334 10.825 13.3334C11.2853 13.3334 11.6584 12.9603 11.6584 12.5V10.8334H13.325C13.7853 10.8334 14.1584 10.4603 14.1584 10C14.1584 9.53978 13.7853 9.16669 13.325 9.16669H11.6584V7.50002Z" fill="white"/>
<path fill-rule="evenodd" clip-rule="evenodd" d="M10.825 1.66669C6.22266 1.66669 2.4917 5.39765 2.4917 10C2.4917 14.6024 6.22266 18.3334 10.825 18.3334C15.4274 18.3334 19.1584 14.6024 19.1584 10C19.1584 5.39765 15.4274 1.66669 10.825 1.66669ZM4.15837 10C4.15837 6.31812 7.14313 3.33335 10.825 3.33335C14.5069 3.33335 17.4917 6.31812 17.4917 10C17.4917 13.6819 14.5069 16.6667 10.825 16.6667C7.14313 16.6667 4.15837 13.6819 4.15837 10Z" fill="white"/>
</g>
</g>
</svg>
