<svg width="21" height="21" viewBox="0 0 21 21" fill="none" xmlns="http://www.w3.org/2000/svg">
<path d="M10.9967 7.55432C10.9967 7.09408 10.6236 6.72099 10.1634 6.72099C9.70318 6.72099 9.33008 7.09408 9.33008 7.55432V9.22099H7.66341C7.20317 9.22099 6.83008 9.59408 6.83008 10.0543C6.83008 10.5146 7.20317 10.8877 7.66341 10.8877H9.33008V12.5543C9.33008 13.0146 9.70318 13.3877 10.1634 13.3877C10.6236 13.3877 10.9967 13.0146 10.9967 12.5543V10.8877H12.6634C13.1236 10.8877 13.4967 10.5146 13.4967 10.0543C13.4967 9.59408 13.1236 9.22099 12.6634 9.22099H10.9967V7.55432Z" fill="white"/>
<path fill-rule="evenodd" clip-rule="evenodd" d="M10.1634 1.72099C5.56104 1.72099 1.83008 5.45195 1.83008 10.0543C1.83008 14.6567 5.56104 18.3877 10.1634 18.3877C14.7658 18.3877 18.4967 14.6567 18.4967 10.0543C18.4967 5.45195 14.7658 1.72099 10.1634 1.72099ZM3.49674 10.0543C3.49674 6.37242 6.48151 3.38765 10.1634 3.38765C13.8453 3.38765 16.8301 6.37242 16.8301 10.0543C16.8301 13.7362 13.8453 16.721 10.1634 16.721C6.48151 16.721 3.49674 13.7362 3.49674 10.0543Z" fill="white"/>
</svg>
