<svg width="20" height="21" viewBox="0 0 20 21" fill="#98A2B3" xmlns="http://www.w3.org/2000/svg">
<path fill-rule="evenodd" clip-rule="evenodd" d="M11.4153 1.97951L10.4168 2.88725L9.41832 1.97951C7.85626 0.559467 5.67265 1.83514 5.60915 3.55893H3.3335C1.95278 3.55893 0.833496 4.67821 0.833496 6.05893V7.633C0.833496 8.30311 1.20815 8.88571 1.75942 9.18276V16.0589C1.75942 17.8999 3.25181 19.3923 5.09275 19.3923H14.9076C16.7485 19.3923 18.2409 17.8999 18.2409 16.0589V9.18276C18.7922 8.88571 19.1668 8.30311 19.1668 7.633V6.05893C19.1668 4.67821 18.0475 3.55893 16.6668 3.55893H15.2245C15.161 1.83514 12.9774 0.559467 11.4153 1.97951ZM6.6821 5.22559C6.67244 5.22576 6.66278 5.22576 6.65313 5.22559H3.3335C2.87326 5.22559 2.50016 5.59869 2.50016 6.05893V7.633C2.50016 7.68414 2.54162 7.72559 2.59276 7.72559H17.4076C17.4587 7.72559 17.5002 7.68414 17.5002 7.633V6.05893C17.5002 5.59869 17.1271 5.22559 16.6668 5.22559H14.1805C14.1709 5.22576 14.1612 5.22576 14.1516 5.22559H6.6821ZM11.2502 9.39226H8.75016V11.6319C8.75016 11.6606 8.75712 11.6741 8.76239 11.6821C8.76966 11.6931 8.78295 11.706 8.80279 11.7156C8.82263 11.7251 8.84106 11.7274 8.8542 11.7262C8.86374 11.7253 8.87862 11.7223 8.901 11.7044C9.54361 11.1903 10.4567 11.1903 11.0993 11.7044C11.1217 11.7223 11.1366 11.7253 11.1461 11.7262C11.1593 11.7274 11.1777 11.7251 11.1975 11.7156C11.2174 11.706 11.2307 11.6931 11.2379 11.6821C11.2432 11.6741 11.2502 11.6606 11.2502 11.6319V9.39226ZM7.0835 9.39226V11.6319C7.0835 13.1073 8.7901 13.9275 9.94216 13.0058C9.97607 12.9787 10.0243 12.9787 10.0582 13.0058C11.2102 13.9275 12.9168 13.1073 12.9168 11.6319V9.39226H16.5742V16.0589C16.5742 16.9794 15.828 17.7256 14.9076 17.7256H5.09275C4.17228 17.7256 3.42609 16.9794 3.42609 16.0589V9.39226H7.0835ZM8.2972 3.21275L8.67799 3.55893H7.298C7.36805 3.14097 7.90628 2.85737 8.2972 3.21275ZM13.5357 3.55893C13.4656 3.14097 12.9274 2.85737 12.5365 3.21275L12.1557 3.55893H13.5357Z"/>
</svg>
