<svg width="21" height="21" viewBox="0 0 21 21" fill="none" xmlns="http://www.w3.org/2000/svg">
<path d="M11.7629 8.42391C11.7629 7.96367 11.3898 7.59058 10.9295 7.59058C10.4693 7.59058 10.0962 7.96367 10.0962 8.42391V10.0906H8.42952C7.96929 10.0906 7.59619 10.4637 7.59619 10.9239C7.59619 11.3841 7.96929 11.7572 8.42952 11.7572H10.0962V13.4239C10.0962 13.8841 10.4693 14.2572 10.9295 14.2572C11.3898 14.2572 11.7629 13.8841 11.7629 13.4239V11.7572H13.4295C13.8898 11.7572 14.2629 11.3841 14.2629 10.9239C14.2629 10.4637 13.8898 10.0906 13.4295 10.0906H11.7629V8.42391Z" fill="white"/>
<path fill-rule="evenodd" clip-rule="evenodd" d="M10.9295 2.59058C6.32715 2.59058 2.59619 6.32154 2.59619 10.9239C2.59619 15.5263 6.32715 19.2572 10.9295 19.2572C15.5319 19.2572 19.2629 15.5263 19.2629 10.9239C19.2629 6.32154 15.5319 2.59058 10.9295 2.59058ZM4.26286 10.9239C4.26286 7.24201 7.24763 4.25724 10.9295 4.25724C14.6114 4.25724 17.5962 7.24201 17.5962 10.9239C17.5962 14.6058 14.6114 17.5906 10.9295 17.5906C7.24763 17.5906 4.26286 14.6058 4.26286 10.9239Z" fill="white"/>
</svg>
