<svg width="20" height="20" viewBox="0 0 20 20" fill="none" xmlns="http://www.w3.org/2000/svg">
<path fill-rule="evenodd" clip-rule="evenodd" d="M9.99948 5C7.23806 5 4.99948 7.23858 4.99948 10C4.99948 12.7614 7.23806 15 9.99948 15C12.7609 15 14.9995 12.7614 14.9995 10C14.9995 7.23858 12.7609 5 9.99948 5ZM6.66615 10C6.66615 8.15906 8.15854 6.66667 9.99948 6.66667C11.8404 6.66667 13.3328 8.15906 13.3328 10C13.3328 11.841 11.8404 13.3333 9.99948 13.3333C8.15854 13.3333 6.66615 11.841 6.66615 10Z" fill="#98A2B3"/>
<path fill-rule="evenodd" clip-rule="evenodd" d="M12.0843 1.69076C10.9219 0.566216 9.07708 0.566216 7.91464 1.69076C7.61939 1.97638 7.20885 2.10977 6.8021 2.05224C5.20069 1.82573 3.7082 2.91009 3.42876 4.50312C3.35778 4.90774 3.10405 5.25697 2.74117 5.4495C1.31246 6.20754 0.742379 7.96207 1.45267 9.41511C1.63308 9.78417 1.63308 10.2158 1.45267 10.5849C0.742378 12.0379 1.31246 13.7925 2.74117 14.5505C3.10405 14.743 3.35778 15.0923 3.42876 15.4969C3.7082 17.0899 5.20069 18.1743 6.8021 17.9478C7.20885 17.8902 7.61939 18.0236 7.91464 18.3093C9.07708 19.4338 10.9219 19.4338 12.0843 18.3093C12.3796 18.0236 12.7901 17.8902 13.1969 17.9478C14.7983 18.1743 16.2908 17.0899 16.5702 15.4969C16.6412 15.0923 16.8949 14.743 17.2578 14.5505C18.6865 13.7925 19.2566 12.0379 18.5463 10.5849C18.3659 10.2158 18.3659 9.78417 18.5463 9.41511C19.2566 7.96207 18.6865 6.20754 17.2578 5.4495C16.8949 5.25697 16.6412 4.90774 16.5702 4.50312C16.2908 2.91009 14.7983 1.82573 13.1969 2.05224C12.7901 2.10977 12.3796 1.97638 12.0843 1.69076ZM9.07347 2.88863C9.58978 2.38915 10.4092 2.38915 10.9255 2.88863C11.5902 3.53169 12.5145 3.83201 13.4303 3.70248C14.1416 3.60187 14.8045 4.08351 14.9286 4.79108C15.0884 5.70205 15.6596 6.4883 16.4766 6.92177C17.1112 7.25847 17.3644 8.03777 17.049 8.68316C16.6428 9.51408 16.6428 10.4859 17.049 11.3168C17.3644 11.9622 17.1112 12.7415 16.4766 13.0782C15.6596 13.5117 15.0884 14.298 14.9286 15.2089C14.8045 15.9165 14.1416 16.3981 13.4303 16.2975C12.5145 16.168 11.5902 16.4683 10.9255 17.1114C10.4092 17.6109 9.58978 17.6109 9.07347 17.1114C8.40874 16.4683 7.48445 16.168 6.56869 16.2975C5.85739 16.3981 5.19448 15.9165 5.07036 15.2089C4.91056 14.298 4.33932 13.5117 3.52232 13.0782C2.88773 12.7415 2.63452 11.9622 2.95001 11.3168C3.35618 10.4859 3.35618 9.51408 2.95001 8.68316C2.63452 8.03777 2.88773 7.25847 3.52232 6.92177C4.33932 6.4883 4.91056 5.70205 5.07036 4.79108C5.19448 4.08351 5.85739 3.60187 6.56869 3.70248C7.48445 3.83201 8.40874 3.53169 9.07347 2.88863Z" fill="#98A2B3"/>
</svg>
