<svg width="21" height="21" viewBox="0 0 21 21" fill="none" xmlns="http://www.w3.org/2000/svg">
<path d="M11.0833 1.91667C11.0833 1.45643 10.7102 1.08334 10.25 1.08334C9.78974 1.08334 9.41664 1.45643 9.41664 1.91667V3.16667C9.41664 3.62691 9.78974 4 10.25 4C10.7102 4 11.0833 3.62691 11.0833 3.16667V1.91667Z" fill="black"/>
<path fill-rule="evenodd" clip-rule="evenodd" d="M4.41664 10.25C4.41664 7.02834 7.02832 4.41667 10.25 4.41667C13.4716 4.41667 16.0833 7.02834 16.0833 10.25C16.0833 13.4717 13.4716 16.0833 10.25 16.0833C7.02832 16.0833 4.41664 13.4717 4.41664 10.25ZM10.25 6.08334C7.94879 6.08334 6.08331 7.94882 6.08331 10.25C6.08331 12.5512 7.94879 14.4167 10.25 14.4167C12.5512 14.4167 14.4166 12.5512 14.4166 10.25C14.4166 7.94882 12.5512 6.08334 10.25 6.08334Z" fill="black"/>
<path d="M10.25 16.0833C10.7102 16.0833 11.0833 16.4564 11.0833 16.9167V18.1667C11.0833 18.6269 10.7102 19 10.25 19C9.78974 19 9.41664 18.6269 9.41664 18.1667V16.9167C9.41664 16.4564 9.78974 16.0833 10.25 16.0833Z" fill="black"/>
<path d="M15.6615 13.1667C15.8916 12.7681 16.4013 12.6315 16.7999 12.8616L17.8824 13.4866C18.281 13.7168 18.4175 14.2264 18.1874 14.625C17.9573 15.0236 17.4476 15.1601 17.0491 14.93L15.9665 14.305C15.568 14.0749 15.4314 13.5652 15.6615 13.1667Z" fill="black"/>
<path d="M15.9665 6.19498C15.568 6.4251 15.4314 6.93476 15.6615 7.33334C15.8916 7.73191 16.4013 7.86848 16.7999 7.63836L17.8824 7.01336C18.281 6.78324 18.4175 6.27358 18.1874 5.875C17.9573 5.47643 17.4476 5.33986 17.0491 5.56998L15.9665 6.19498Z" fill="black"/>
<path d="M3.44985 5.36165C3.05127 5.13153 2.54161 5.26809 2.31149 5.66667C2.08137 6.06525 2.21794 6.5749 2.61651 6.80502L3.69904 7.43002C4.09762 7.66014 4.60728 7.52358 4.8374 7.125C5.06752 6.72643 4.93096 6.21677 4.53238 5.98665L3.44985 5.36165Z" fill="black"/>
<path d="M2.31149 14.8333C2.08137 14.4348 2.21794 13.9251 2.61651 13.695L3.69904 13.07C4.09762 12.8399 4.60728 12.9764 4.8374 13.375C5.06752 13.7736 4.93096 14.2832 4.53238 14.5134L3.44985 15.1384C3.05127 15.3685 2.54161 15.2319 2.31149 14.8333Z" fill="black"/>
</svg>
