<svg width="25" height="24" viewBox="0 0 25 24" fill="none" xmlns="http://www.w3.org/2000/svg">
<g id="Icon/Outline/users">
<path id="Icon" d="M12.8252 4.35418C13.5581 3.52375 14.6305 3 15.8252 3C18.0343 3 19.8252 4.79086 19.8252 7C19.8252 9.20914 18.0343 11 15.8252 11C14.6305 11 13.5581 10.4762 12.8252 9.64582M15.8252 21H3.8252V20C3.8252 16.6863 6.51149 14 9.8252 14C13.1389 14 15.8252 16.6863 15.8252 20V21ZM15.8252 21H21.8252V20C21.8252 16.6863 19.1389 14 15.8252 14C14.7323 14 13.7077 14.2922 12.8252 14.8027M13.8252 7C13.8252 9.20914 12.0343 11 9.8252 11C7.61606 11 5.8252 9.20914 5.8252 7C5.8252 4.79086 7.61606 3 9.8252 3C12.0343 3 13.8252 4.79086 13.8252 7Z" stroke="#3F3F46" stroke-width="1.6" stroke-linecap="round" stroke-linejoin="round"/>
</g>
</svg>
