<svg width="20" height="20" viewBox="0 0 20 20" fill="none" xmlns="http://www.w3.org/2000/svg">
<path d="M9.8252 2.35418C10.5581 1.52375 11.6305 1 12.8252 1C15.0343 1 16.8252 2.79086 16.8252 5C16.8252 7.20914 15.0343 9 12.8252 9C11.6305 9 10.5581 8.47624 9.8252 7.64582M12.8252 19H0.825195V18C0.825195 14.6863 3.51149 12 6.8252 12C10.1389 12 12.8252 14.6863 12.8252 18V19ZM12.8252 19H18.8252V18C18.8252 14.6863 16.1389 12 12.8252 12C11.7323 12 10.7077 12.2922 9.8252 12.8027M10.8252 5C10.8252 7.20914 9.03433 9 6.8252 9C4.61606 9 2.8252 7.20914 2.8252 5C2.8252 2.79086 4.61606 1 6.8252 1C9.03433 1 10.8252 2.79086 10.8252 5Z" stroke="#3F3F46" stroke-width="1.6" stroke-linecap="round" stroke-linejoin="round"/>
</svg>
